<?xml version="1.0" encoding="utf-8"?>
<!DOCTYPE svg PUBLIC "-//W3C//DTD SVG 20010904//EN" "http://www.w3.org/TR/2001/REC-SVG-20010904/DTD/svg10.dtd">
<svg version="1.0" xmlns="http://www.w3.org/2000/svg" width="109px" height="62px" viewBox="0 0 109 62" preserveAspectRatio="xMidYMid meet">
 <g fill="none" stroke="#000000" stroke-width="1">
  <path d="M47.5 49.5 c-4.7 -4.3 -6.7 -5.5 -9.5 -5.6 -7.4 -0.2 -11.6 0.3 -13.7 1.7 -3.4 2.2 -7.3 1.8 -7.3 -0.6 0 -2.8 2.3 -10 3.2 -10 0.5 0 0.8 -0.6 0.8 -1.4 0 -0.7 0.7 -1.9 1.5 -2.6 0.8 -0.7 1.5 -2.5 1.5 -4.1 0 -1.6 0.4 -2.9 0.9 -2.9 0.5 0 1.2 -1.1 1.5 -2.5 0.6 -2.3 3.6 -3.6 3.6 -1.6 0 0.5 1.4 1.7 3.1 2.5 2.9 1.5 3.3 1.5 4.5 -0.2 0.7 -0.9 1.4 -2.2 1.4 -2.7 0 -0.6 1.2 -1.6 2.8 -2.2 1.5 -0.7 4.2 -2.1 5.9 -3.1 4.5 -2.6 10.4 -1.2 12.2 3 1.4 3.1 5.6 5.7 8.6 5.5 1.2 -0.1 2.4 0.7 3 2.1 0.5 1.2 1.8 2.2 2.7 2.2 1 0 1.8 0.5 1.8 1 0 0.6 0.9 1 2 1 1.1 0 2 -0.4 2 -0.9 0 -1.6 4 -2.3 5.5 -1.1 1.2 1 1 1.9 -1.3 5.9 -5.9 10.2 -7 10.9 -20.2 12.9 -3.7 0.6 -4.6 1.1 -4.8 3 -0.3 1.6 -1 2.2 -3 2.3 -1.7 0.1 -2.1 0.3 -0.9 0.6 0.9 0.2 1.7 1.1 1.7 1.9 0 2.8 -3.6 1.2 -9.5 -4.1z m7.3 -0.1 c1.8 -0.4 3.4 -1.5 4.1 -3 0.8 -1.9 1.8 -2.4 4.7 -2.4 4.2 0 11.4 -1.9 13 -3.5 2.2 -2.1 8.4 -10.7 8.4 -11.6 0 -1.5 -3.7 -1 -4.4 0.6 -0.7 1.9 -4 1.9 -5.6 0 -0.7 -0.8 -2.1 -1.5 -3.1 -1.5 -1.2 0 -1.9 -0.7 -1.9 -2 0 -1.7 -0.5 -1.9 -2.5 -1.4 -1.5 0.4 -2.5 0.2 -2.5 -0.5 0 -0.6 -0.8 -1.1 -1.7 -1.1 -1 -0.1 -3.4 -2.1 -5.3 -4.5 -1.9 -2.5 -4.3 -4.5 -5.3 -4.5 -1.1 0 -4.3 1.5 -7.3 3.3 -3.8 2.3 -5.9 4.4 -7.4 7.5 -2.2 4.5 -4.3 5.6 -3.8 2 0.2 -1.6 -0.3 -2.4 -1.7 -2.6 -1.1 -0.3 -2.5 -1.2 -3.2 -2.1 -1 -1.4 -1.2 -1.4 -1.9 0.4 -0.4 1.1 -1.2 2.3 -1.8 2.7 -0.8 0.5 -0.7 1.3 0.1 2.7 1 1.7 0.9 2.2 -1.3 3.6 -1.5 0.9 -2.3 2.2 -2 3 0.3 0.8 -0.2 1.8 -1.1 2.3 -1.4 0.8 -1.4 1.1 0.1 3.4 1.5 2.3 2 2.4 11.6 2.2 l10.1 -0.2 3.7 3.9 c4.1 4.3 3.8 4.1 8 3.3z"/>
  <path d="M88.8 25 c-1.9 -2.1 -2.4 -4.5 -0.8 -3.5 0.6 0.3 1 0.2 1 -0.4 0 -0.5 1.4 -1.2 3 -1.6 3.4 -0.8 8 1.5 8 4 0 1.8 -0.9 2.3 -5.6 2.9 -3 0.4 -4.3 0.1 -5.6 -1.4z m7.6 -0.6 c2.4 -0.9 0.6 -3.4 -2.4 -3.4 -3 0 -4.5 1.3 -3.5 3 0.7 1.1 3.5 1.3 5.9 0.4z"/>
  <path d="M75.3 24.6 c-0.7 -0.8 -1.8 -1.6 -2.5 -1.9 -0.9 -0.3 -1 -0.8 -0.3 -1.5 0.9 -1 4.2 -0.6 11.4 1.5 2.2 0.6 0.1 2.1 -3.9 2.7 -2.4 0.4 -3.9 0.2 -4.7 -0.8z"/>
 </g>
</svg>